<svg xmlns="http://www.w3.org/2000/svg" xmlns:xlink="http://www.w3.org/1999/xlink" version="1.1" width="442.533" height="442.533" style="enable-background:new 0 0 442.533 442.533;" xml:space="preserve"><rect id="backgroundrect" width="100%" height="100%" x="0" y="0" fill="none" stroke="none"/>
















<g class="currentLayer" style=""><title>Layer 1</title><g id="svg_1" class="selected" fill="#0bd50b" fill-opacity="1">
	<path d="M434.539,98.499l-38.828-38.828c-5.324-5.328-11.799-7.993-19.41-7.993c-7.618,0-14.093,2.665-19.417,7.993L169.59,247.248   l-83.939-84.225c-5.33-5.33-11.801-7.992-19.412-7.992c-7.616,0-14.087,2.662-19.417,7.992L7.994,201.852   C2.664,207.181,0,213.654,0,221.269c0,7.609,2.664,14.088,7.994,19.416l103.351,103.349l38.831,38.828   c5.327,5.332,11.8,7.994,19.414,7.994c7.611,0,14.084-2.669,19.414-7.994l38.83-38.828L434.539,137.33   c5.325-5.33,7.994-11.802,7.994-19.417C442.537,110.302,439.864,103.829,434.539,98.499z" id="svg_2" fill="#0bd50b" fill-opacity="1"/>
</g><g id="svg_3">
</g><g id="svg_4">
</g><g id="svg_5">
</g><g id="svg_6">
</g><g id="svg_7">
</g><g id="svg_8">
</g><g id="svg_9">
</g><g id="svg_10">
</g><g id="svg_11">
</g><g id="svg_12">
</g><g id="svg_13">
</g><g id="svg_14">
</g><g id="svg_15">
</g><g id="svg_16">
</g><g id="svg_17">
</g></g></svg>